<svg width="720" height="520" viewBox="0 0 720 520" fill="none" xmlns="http://www.w3.org/2000/svg"><rect width="720" height="520" rx="40" fill="url(#bg)"/><rect x="42" y="42" width="636" height="436" rx="34" fill="#fff" stroke="#eadfbf"/><rect x="72" y="72" width="576" height="112" rx="28" fill="#0B2447"/><text x="104" y="118" fill="#FFF4D8" font-family="Inter,Arial,sans-serif" font-size="20" font-weight="800">Domácí rozpočet</text><text x="104" y="163" fill="#fff" font-family="Inter,Arial,sans-serif" font-size="40" font-weight="900">Rozdělení výplaty</text><rect x="72" y="226" width="170" height="108" rx="24" fill="#FFF8E8" stroke="#EADFBF"/><text x="96" y="266" fill="#8A5A00" font-family="Inter,Arial,sans-serif" font-size="16" font-weight="850">1. krok</text><text x="96" y="302" fill="#081A33" font-family="Inter,Arial,sans-serif" font-size="27" font-weight="900">výdaje</text><rect x="275" y="226" width="170" height="108" rx="24" fill="#F4F9FD" stroke="#D9E8F3"/><text x="299" y="266" fill="#5E748D" font-family="Inter,Arial,sans-serif" font-size="16" font-weight="850">2. krok</text><text x="299" y="302" fill="#081A33" font-family="Inter,Arial,sans-serif" font-size="27" font-weight="900">rezerva</text><rect x="478" y="226" width="170" height="108" rx="24" fill="#F1FAED" stroke="#CAE6C1"/><text x="502" y="266" fill="#2A7B1F" font-family="Inter,Arial,sans-serif" font-size="16" font-weight="850">3. krok</text><text x="502" y="302" fill="#081A33" font-family="Inter,Arial,sans-serif" font-size="27" font-weight="900">volné peníze</text><rect x="72" y="384" width="576" height="42" rx="21" fill="#EEF5FB"/><rect x="72" y="384" width="360" height="42" rx="21" fill="#E6A700"/><text x="104" y="411" fill="#081A33" font-family="Inter,Arial,sans-serif" font-size="17" font-weight="900">příjem → provoz → bezpečný zbytek</text><defs><linearGradient id="bg" x1="0" y1="0" x2="720" y2="520" gradientUnits="userSpaceOnUse"><stop stop-color="#FFFAEF"/><stop offset="1" stop-color="#EAF4FF"/></linearGradient></defs></svg>