<svg width="720" height="520" viewBox="0 0 720 520" fill="none" xmlns="http://www.w3.org/2000/svg">
  <rect width="720" height="520" rx="40" fill="url(#bg)"/>
  <rect x="40" y="40" width="640" height="440" rx="34" fill="#FFFFFF" stroke="#D9E8F3"/>
  <rect x="72" y="74" width="172" height="34" rx="17" fill="#ECF7E8"/>
  <text x="90" y="96" fill="#2A7B1F" font-family="Inter, Arial, sans-serif" font-size="17" font-weight="800">Hrubá vs čistá mzda</text>
  <text x="72" y="154" fill="#081A33" font-family="Inter, Arial, sans-serif" font-size="40" font-weight="900">Co je v nabídce a co</text>
  <text x="72" y="192" fill="#081A33" font-family="Inter, Arial, sans-serif" font-size="40" font-weight="900">dorazí na účet</text>

  <rect x="72" y="232" width="576" height="64" rx="32" fill="#EEF5FB"/>
  <rect x="72" y="232" width="310" height="64" rx="32" fill="#0B2447"/>
  <text x="108" y="271" fill="#FFFFFF" font-family="Inter, Arial, sans-serif" font-size="18" font-weight="800">Hrubá mzda</text>
  <text x="468" y="271" fill="#081A33" font-family="Inter, Arial, sans-serif" font-size="18" font-weight="800">Čistá mzda</text>

  <g>
    <rect x="72" y="336" width="170" height="88" rx="22" fill="#F4F9FD" stroke="#D9E8F3"/>
    <text x="96" y="370" fill="#5E748D" font-family="Inter, Arial, sans-serif" font-size="15" font-weight="800">Pojistné</text>
    <text x="96" y="401" fill="#081A33" font-family="Inter, Arial, sans-serif" font-size="28" font-weight="900">odvody</text>
  </g>
  <g>
    <rect x="275" y="336" width="170" height="88" rx="22" fill="#F4F9FD" stroke="#D9E8F3"/>
    <text x="299" y="370" fill="#5E748D" font-family="Inter, Arial, sans-serif" font-size="15" font-weight="800">Daň a slevy</text>
    <text x="299" y="401" fill="#081A33" font-family="Inter, Arial, sans-serif" font-size="28" font-weight="900">výsledek mění</text>
  </g>
  <g>
    <rect x="478" y="336" width="170" height="88" rx="22" fill="#F1FAED" stroke="#CAE6C1"/>
    <text x="502" y="370" fill="#2A7B1F" font-family="Inter, Arial, sans-serif" font-size="15" font-weight="800">Na účet</text>
    <text x="502" y="401" fill="#081A33" font-family="Inter, Arial, sans-serif" font-size="28" font-weight="900">čistá částka</text>
  </g>
  <defs>
    <linearGradient id="bg" x1="0" y1="0" x2="720" y2="520" gradientUnits="userSpaceOnUse">
      <stop stop-color="#F7FBFF"/>
      <stop offset="1" stop-color="#EAF6EC"/>
    </linearGradient>
  </defs>
</svg>
