<svg width="720" height="520" viewBox="0 0 720 520" fill="none" xmlns="http://www.w3.org/2000/svg">
<rect width="720" height="520" rx="40" fill="url(#bg)"/>
<rect x="40" y="40" width="640" height="440" rx="34" fill="#fff" stroke="#D9E8F3"/>
<rect x="76" y="74" width="176" height="34" rx="17" fill="#fff4cf"/>
<text x="96" y="96" fill="#8A5B00" font-family="Inter,Arial,sans-serif" font-size="17" font-weight="900">Energie doma</text>
<rect x="76" y="128" width="568" height="132" rx="30" fill="#0B2447"/>
<text x="104" y="181" fill="#fff" font-family="Inter,Arial,sans-serif" font-size="42" font-weight="900">Energie a provoz</text>
<text x="104" y="220" fill="#D8E7F7" font-family="Inter,Arial,sans-serif" font-size="22" font-weight="800">Elektřina, spotřebiče, vytápění</text>
<rect x="76" y="288" width="568" height="34" rx="17" fill="#EEF5FB"/>
<rect x="76" y="288" width="310" height="34" rx="17" fill="#f5b51b"/>
<text x="104" y="311" fill="#081A33" font-family="Inter,Arial,sans-serif" font-size="16" font-weight="900">spotřeba → cena → rozpočet</text>
<rect x="76" y="350" width="145" height="72" rx="18" fill="#F4F9FD" stroke="#D9E8F3"/><text x="96" y="382" fill="#5E748D" font-family="Inter,Arial,sans-serif" font-size="15" font-weight="800">spotřeba</text><text x="96" y="407" fill="#081A33" font-family="Inter,Arial,sans-serif" font-size="22" font-weight="900">kWh</text><rect x="246" y="350" width="145" height="72" rx="18" fill="#FFF6D8" stroke="#F5D980"/><text x="266" y="382" fill="#8A5B00" font-family="Inter,Arial,sans-serif" font-size="15" font-weight="800">měsíčně</text><text x="266" y="407" fill="#081A33" font-family="Inter,Arial,sans-serif" font-size="22" font-weight="900">náklad</text><rect x="416" y="350" width="145" height="72" rx="18" fill="#F1FAED" stroke="#CAE6C1"/><text x="436" y="382" fill="#2A7B1F" font-family="Inter,Arial,sans-serif" font-size="15" font-weight="800">rezerva</text><text x="436" y="407" fill="#081A33" font-family="Inter,Arial,sans-serif" font-size="22" font-weight="900">bezpečí</text>
<defs><linearGradient id="bg" x1="0" y1="0" x2="720" y2="520" gradientUnits="userSpaceOnUse"><stop stop-color="#FFF8DF"/><stop offset="1" stop-color="#EAF4FF"/></linearGradient></defs>
</svg>