<svg xmlns="http://www.w3.org/2000/svg" width="720" height="520" viewBox="0 0 720 520" role="img" aria-labelledby="title desc">
  <title id="title">DPP, DPČ a daně</title>
  <desc id="desc">Moderní ilustrace daňového rozhodování u dohod DPP a DPČ s kartami srážkové daně, zálohové daně a pojistného.</desc>
  <defs>
    <linearGradient id="bg" x1="40" y1="20" x2="680" y2="500" gradientUnits="userSpaceOnUse">
      <stop stop-color="#faf5ff"/>
      <stop offset=".55" stop-color="#f8fafc"/>
      <stop offset="1" stop-color="#eef2ff"/>
    </linearGradient>
    <linearGradient id="purple" x1="120" y1="80" x2="610" y2="430" gradientUnits="userSpaceOnUse">
      <stop stop-color="#7c3aed"/>
      <stop offset="1" stop-color="#2563eb"/>
    </linearGradient>
    <filter id="shadow" x="-20%" y="-20%" width="140%" height="140%">
      <feDropShadow dx="0" dy="18" stdDeviation="22" flood-color="#312e81" flood-opacity=".16"/>
    </filter>
  </defs>
  <rect width="720" height="520" rx="34" fill="url(#bg)"/>
  <circle cx="622" cy="84" r="72" fill="#7c3aed" opacity=".10"/>
  <circle cx="112" cy="430" r="86" fill="#2563eb" opacity=".10"/>
  <path d="M96 160C156 82 270 70 348 117c58 35 116 35 183 12 82-28 142 18 151 92 12 96-72 178-179 177-87-1-116 53-202 53-102 0-198-66-218-159-10-45-4-92 13-132Z" fill="#fff" opacity=".78"/>
  <g filter="url(#shadow)">
    <rect x="116" y="88" width="488" height="344" rx="32" fill="#fff"/>
    <rect x="116" y="88" width="488" height="72" rx="32" fill="url(#purple)"/>
    <path d="M116 133h488v27H116z" fill="url(#purple)"/>
    <text x="150" y="132" font-family="Inter,Arial,sans-serif" font-size="25" font-weight="800" fill="#fff">DPP / DPČ a daně</text>
    <rect x="148" y="190" width="186" height="88" rx="22" fill="#f5f3ff" stroke="#ddd6fe"/>
    <text x="168" y="222" font-family="Inter,Arial,sans-serif" font-size="17" font-weight="800" fill="#4c1d95">Prohlášení</text>
    <text x="168" y="250" font-family="Inter,Arial,sans-serif" font-size="14" fill="#5b6472">sleva jen u jednoho</text>
    <rect x="386" y="190" width="186" height="88" rx="22" fill="#eff6ff" stroke="#bfdbfe"/>
    <text x="406" y="222" font-family="Inter,Arial,sans-serif" font-size="17" font-weight="800" fill="#1e3a8a">Daň</text>
    <text x="406" y="250" font-family="Inter,Arial,sans-serif" font-size="14" fill="#5b6472">srážková / zálohová</text>
    <rect x="148" y="304" width="424" height="88" rx="24" fill="#f8fafc" stroke="#e2e8f0"/>
    <text x="174" y="337" font-family="Inter,Arial,sans-serif" font-size="17" font-weight="800" fill="#0f172a">Co zkontrolovat</text>
    <g fill="none" stroke-linecap="round" stroke-width="8">
      <path d="M178 365h92" stroke="#7c3aed"/>
      <path d="M300 365h92" stroke="#2563eb"/>
      <path d="M422 365h92" stroke="#10b981"/>
    </g>
    <text x="178" y="388" font-family="Inter,Arial,sans-serif" font-size="12" font-weight="700" fill="#64748b">limit</text>
    <text x="300" y="388" font-family="Inter,Arial,sans-serif" font-size="12" font-weight="700" fill="#64748b">pojistné</text>
    <text x="422" y="388" font-family="Inter,Arial,sans-serif" font-size="12" font-weight="700" fill="#64748b">přiznání</text>
  </g>
  <g transform="translate(462 70)">
    <rect x="0" y="0" width="96" height="96" rx="28" fill="#10b981"/>
    <path d="M26 52l15 15 31-38" fill="none" stroke="#fff" stroke-width="9" stroke-linecap="round" stroke-linejoin="round"/>
  </g>
</svg>