<svg xmlns="http://www.w3.org/2000/svg" width="1200" height="630" viewBox="0 0 1200 630">
  <defs>
    <linearGradient id="bg" x1="0" y1="0" x2="1" y2="1">
      <stop offset="0" stop-color="#ffffff"/>
      <stop offset=".55" stop-color="#f2f8ff"/>
      <stop offset="1" stop-color="#edf9e9"/>
    </linearGradient>
    <linearGradient id="green" x1="0" y1="0" x2="1" y2="1">
      <stop offset="0" stop-color="#72d45a"/>
      <stop offset="1" stop-color="#45b22f"/>
    </linearGradient>
  </defs>
  <rect width="1200" height="630" fill="url(#bg)"/>
  <circle cx="1020" cy="80" r="150" fill="#0f5aa8" opacity=".08"/>
  <circle cx="120" cy="560" r="190" fill="#45b22f" opacity=".10"/>
  <g transform="translate(80 74)">
    <rect x="0" y="0" width="56" height="64" rx="15" fill="#0b2447"/>
    <rect x="13" y="12" width="30" height="10" rx="3" fill="#fff"/>
    <rect x="13" y="32" width="11" height="8" rx="2" fill="#fff"/>
    <rect x="31" y="32" width="11" height="8" rx="2" fill="#fff"/>
    <rect x="13" y="49" width="11" height="8" rx="2" fill="#fff"/>
    <path d="M54 8 31 41h17L36 68 72 24H54z" fill="url(#green)"/>
    <text x="86" y="43" font-family="Arial, system-ui, sans-serif" font-size="34" font-weight="800" fill="#0b2447">Rychlé</text>
    <text x="197" y="43" font-family="Arial, system-ui, sans-serif" font-size="34" font-weight="800" fill="#45b22f">Výpočty</text>
    <text x="335" y="43" font-family="Arial, system-ui, sans-serif" font-size="34" font-weight="800" fill="#0b2447">.cz</text>
  </g>
  <text x="80" y="245" font-family="Arial, system-ui, sans-serif" font-size="76" font-weight="900" fill="#0b2447">Rychlé výpočty</text>
  <text x="80" y="330" font-family="Arial, system-ui, sans-serif" font-size="76" font-weight="900" fill="#0b2447">pro každou situaci</text>
  <text x="82" y="395" font-family="Arial, system-ui, sans-serif" font-size="28" font-weight="500" fill="#52657f">Online kalkulačky pro hypotéky, mzdy, podnikání, bydlení, energie, auto i domácnost.</text>
  <rect x="80" y="450" width="320" height="64" rx="32" fill="#45b22f"/>
  <text x="124" y="492" font-family="Arial, system-ui, sans-serif" font-size="24" font-weight="800" fill="#fff">Najít kalkulačku</text>
  <g transform="translate(810 120) rotate(7)">
    <rect x="0" y="0" width="220" height="292" rx="32" fill="#0b2447"/>
    <rect x="30" y="28" width="160" height="52" rx="12" fill="url(#green)"/>
    <text x="120" y="65" text-anchor="middle" font-family="Arial, system-ui, sans-serif" font-size="26" font-weight="800" fill="#fff">12345</text>
    <g fill="#eff6ff">
      <rect x="32" y="110" width="38" height="34" rx="8"/><rect x="91" y="110" width="38" height="34" rx="8"/><rect x="150" y="110" width="38" height="34" rx="8"/>
      <rect x="32" y="165" width="38" height="34" rx="8"/><rect x="91" y="165" width="38" height="34" rx="8"/><rect x="32" y="220" width="38" height="34" rx="8"/><rect x="91" y="220" width="38" height="34" rx="8"/>
    </g>
    <rect x="150" y="165" width="38" height="89" rx="9" fill="#1281e8"/>
  </g>
  <path d="M1055 210 1004 303h42l-30 105 102-137h-52z" fill="#45b22f"/>
</svg>