<svg xmlns="http://www.w3.org/2000/svg"><defs>
<symbol id="rv-status-check" viewBox="0 0 24 24"><path d="M5 12.5l4.2 4.2L19 6.8" fill="none" stroke="currentColor" stroke-width="2.2" stroke-linecap="round" stroke-linejoin="round"/><circle cx="12" cy="12" r="9.2" fill="none" stroke="currentColor" stroke-width="1.5" opacity=".42"/></symbol>
<symbol id="rv-status-info" viewBox="0 0 24 24"><circle cx="12" cy="12" r="9" fill="none" stroke="currentColor" stroke-width="1.7"/><path d="M12 10v6M12 7.2h.01" fill="none" stroke="currentColor" stroke-width="2" stroke-linecap="round"/></symbol>
<symbol id="rv-status-warning" viewBox="0 0 24 24"><path d="M12 3.8 21 20H3L12 3.8Z" fill="none" stroke="currentColor" stroke-width="1.7" stroke-linejoin="round"/><path d="M12 9v5M12 17.2h.01" stroke="currentColor" stroke-width="2" stroke-linecap="round"/></symbol>
<symbol id="rv-status-risk" viewBox="0 0 24 24"><path d="M7 7l10 10M17 7 7 17" fill="none" stroke="currentColor" stroke-width="2.2" stroke-linecap="round"/><circle cx="12" cy="12" r="9" fill="none" stroke="currentColor" stroke-width="1.5" opacity=".45"/></symbol>
<symbol id="rv-status-empty" viewBox="0 0 24 24"><path d="M4 7.5h16v11H4zM8 4.5h8" fill="none" stroke="currentColor" stroke-width="1.7" stroke-linecap="round" stroke-linejoin="round"/><path d="M8 12h8" stroke="currentColor" stroke-width="1.7" stroke-linecap="round" opacity=".55"/></symbol>
<symbol id="rv-status-next" viewBox="0 0 24 24"><path d="M5 12h13M14 7l5 5-5 5" fill="none" stroke="currentColor" stroke-width="2" stroke-linecap="round" stroke-linejoin="round"/></symbol>
<symbol id="rv-status-compare" viewBox="0 0 24 24"><path d="M7 5v14M17 5v14M4 9l3-3 3 3M14 15l3 3 3-3" fill="none" stroke="currentColor" stroke-width="1.8" stroke-linecap="round" stroke-linejoin="round"/></symbol>
</defs></svg>